<svg width="317" height="67" viewBox="0 0 317 67" fill="none" xmlns="http://www.w3.org/2000/svg">
<path d="M316.42 19.9594L303.225 55.4759H294.247L280.68 19.9594H290.945L299.007 41.1985H299.557L306.526 19.9594H316.42Z" fill="black"/>
<path d="M263.274 19.4108C248.98 19.4108 246.228 33.1395 246.228 37.7177C246.228 41.5644 246.777 54.7444 263.274 56.2075C269.688 56.7562 279.032 54.3786 279.032 54.3786V46.6912C279.032 46.6912 258.141 52.5497 257.042 41.3815H279.953C281.052 36.6204 281.784 19.4108 263.274 19.4108ZM257.042 34.4257C257.042 32.0481 258.507 27.6527 263.823 27.6527C269.322 27.6527 270.603 32.0481 270.603 34.4257H257.042Z" fill="black"/>
<path d="M231.202 4.2193V19.9598C206.643 15.7474 206.276 36.4379 206.276 37.901C206.276 39.3641 204.629 63.5295 241.284 54.1961C241.284 45.5943 241.284 4.2193 241.284 4.2193H231.202V4.2193ZM231.202 47.0574C219.288 48.8863 216.908 43.0279 216.908 37.724C216.908 32.4142 219.838 26.0071 231.202 28.7564C231.202 32.9629 231.202 47.0574 231.202 47.0574Z" fill="black"/>
<path d="M197.659 19.5934C191.245 19.5934 189.414 23.8058 188.126 25.2689C187.577 25.2689 187.577 25.2689 187.577 25.2689V19.9592H170.165V28.3781H177.494V47.0508H170.165V55.4698H200.039V47.0567H187.577V33.6938C191.611 29.8472 193.991 30.2129 203.152 30.03V19.5934C201.144 19.5934 201.144 19.5934 197.659 19.5934Z" fill="black"/>
<path d="M147.992 19.4108C128.932 19.4108 129.664 37.3519 129.664 37.9006C129.664 38.4493 129.115 56.3904 147.992 56.3904C166.869 56.3904 166.503 38.4493 166.503 37.9006C166.503 37.3519 167.052 19.4108 147.992 19.4108ZM147.992 47.4228C141.944 47.4228 140.113 43.2104 140.113 37.7177C140.113 32.4079 141.944 28.0126 147.992 28.0126C154.04 28.0126 155.871 32.225 155.871 37.7177C156.06 43.0275 154.223 47.4228 147.992 47.4228Z" fill="black"/>
<path d="M112.624 19.2282C105.111 19.2282 101.26 23.0748 101.26 23.0748L100.161 19.9656H91.1837V55.4822H101.266V32.2253C101.266 32.2253 103.463 28.0129 108.962 28.0129C114.461 28.0129 114.827 30.5734 114.827 33.1398V55.4763H124.909V28.9333C124.537 22.8919 119.954 19.2282 112.624 19.2282Z" fill="black"/>
<path d="M0.943542 50.4227L12.3544 39.2348V23.1951H28.4123L39.6128 11.7972H12.3544C6.05195 11.7972 0.943542 16.8998 0.943542 23.1951V50.4227Z" fill="#EA402F"/>
<path d="M55.6707 27.8372L44.4702 39.2352V55.0648H28.4123L17.0015 66.4627H44.2599C50.5623 66.4627 55.6707 61.3601 55.6707 55.0648V27.8372Z" fill="#EA402F"/>
<path d="M28.4123 0.609253L39.6128 11.7971H55.6707V27.8368L67.0815 39.2347V0.609253H28.4123Z" fill="#EA402F"/>
<path d="M33.8464 33.5966H22.4355V44.9945H33.8464V33.5966Z" fill="#EA402F"/>
</svg>
